# xmcd CD database file
#
# Track frame offsets:
#	150
#	20064
#	43444
#	66469
#	86186
#	103386
#	120864
#	139241
#	163534
#	179407
#
# Disc length: 2794 seconds
#
# Revision: 0
# Processed by: cddbd v1.5.1PL0 Copyright (c) Steve Scherf et al.
# Submitted via: CDex 1.50
#
DISCID=960ae80a
DTITLE=Blue Line Music - Drive Time
DYEAR=1900
DGENRE=Jazz
TTITLE0=Santa Fe
TTITLE1=Can You Keep A Secret
TTITLE2=Valentine Be Mine
TTITLE3=Wishes Come True
TTITLE4=Torches On The Lake
TTITLE5=Stepping Out
TTITLE6=Round Robin
TTITLE7=Outer Limits
TTITLE8=Time Tunnel
TTITLE9=Cinematic
EXTD=
EXTT0=
EXTT1=
EXTT2=
EXTT3=
EXTT4=
EXTT5=
EXTT6=
EXTT7=
EXTT8=
EXTT9=
PLAYORDER=
